<svg xmlns="http://www.w3.org/2000/svg" viewBox="0 0 790.66 211.48"><defs><style>.cls-1{fill:#565656;}</style></defs><g id="Layer_2" data-name="Layer 2"><g id="Layer_1-2" data-name="Layer 1"><path class="cls-1" d="M347.89,201c-1.95-8.83.23-18.42,4.44-26.12C358.5,163.52,370.6,151.2,380.8,140c4-4.35,9.4-10.21,10.23-14.42a46.71,46.71,0,0,0,.86-6.23c0-1.72-.25-1.59-3.95,1.9-4.42,4.18-9.94,9.34-15.09,7.21-4.8-2-5.17-9.06-5.17-14.7,0-1.83.45-5.34-1.18-4.94-8,2.92-12.66,11.13-16.59,17.79-7,12-13,23.62-24.43,28.91-4.25,2-10.51,3-14.06-.06-1.78-1.53-1.11-4.6-1.09-6.94s1.86-6.12,1.17-6.94c-1.92-2.32-.7-14.2,4.37-42.78,4-22.37,10.27-45.93,16.3-60.89C338.88,21.27,349.35,4,354.61,1c9.68-5.61,10.64,13.57,1.66,33.37-3.52,7.76-9.19,15.77-21.44,30.29-3.43,4.06-6.71,8.53-7.29,9.93-2.68,12.68-6.1,31.29-8.73,46.52-.63,3.61,3.85-6.17,6-9.4a108.78,108.78,0,0,1,7.33-10c2.5-2.94,5.8-6,9.61-7.24a11,11,0,0,1,7.84.07c4.27,2,5.4,7.75,5.76,12.88.09,1.23-.55,3.08.54,3.67,1.47.79,2.93-1,4.52-2.13,5.79-4.24,8-7.14,10.53-13.63s4.38-9,6.52-8.62c3.1.61,2.93,2.38-1.17,12.61-3.56,8.86-3.62,10.68-4.3,16.6-.4,3.51-.59,8.81,2.63,10.29,2.52,1.16,8.48-2.9,11.64-6.31,4.59-5,6.48-8.45,10.85-18.9,4.76-11.4,5.4-12.33,8.36-12,1.54.15,2.44.68,2.61,1.53s-1.11,4.76-2.76,9c-3.43,8.77-7.12,21.15-6.5,21.77.23.23,4.55-3.39,9.6-8,15.2-14,29.29-25.56,30.15-24.7.49.49-1.2,2.06-13.34,12.31-4.66,3.94-12.88,11.46-18.25,16.7L397.22,127l-.84,8.16c-3.8,37.28-11.49,57.87-17.14,68.84-8.31,12.55-29,7.66-31.35-3.08Zm21.34,6.29c2.56-1.09,4.47-3.49,5.95-5.84,5.29-8.4,7.39-18.5,9.63-28.17,2.93-12.69,5.72-38.33,4.86-38.78s-21.93,21.35-30.28,32.66c-6.7,9.08-12.05,21.6-9.55,32.5.83,3.61,4.33,6.58,7.77,8A15.73,15.73,0,0,0,369.23,207.25Zm-46.82-55.89c3.6-1.83,12.17-11.21,17.11-18.72,4.46-6.78,6-9.69,5.18-9.69-1.36,0-19.63,11.51-25,15.77s-7.39,11.19-4.08,13.51c1.72,1.2,3.1,1,6.81-.87ZM334,126.59c5.92-4,8.78-5.81,12.13-9.78a18.56,18.56,0,0,0,4.19-7.55c.85-3.81,1.83-8.78-.77-11.69-1.15-1.29-3.36-1.5-5.09-.93-6.44,2.12-11.16,6.17-16.64,15-4.51,7.28-13.06,18.39-11.9,25.25.26,1.52,3.11-.14,4.53-.94,4.77-2.73,7.63-5.41,13.55-9.38Zm4.59-71.39c9.26-12.12,18.82-29.94,21-39.13,2-8.69,1.13-14.9-2-13.7-5,1.93-22.24,40.38-26.87,60.09l-.53,2.23,2-1.86a85.77,85.77,0,0,0,6.42-7.63ZM221.25,186.82a37.47,37.47,0,0,1-3-14.69c0-5.67,1.3-10.54,3.59-16.61,4.92-13.1,13.07-25.43,24.75-37.44l8-8.21-3.23-7.38c-1.77-4-3.8-9.12-4.5-11.27s-.41-3.88-1.58-3.42-3.45,2.4-5.44,2.89c-2.2.54-6.81,0-6.81,0-3.46.12-5.31,1.63-9.43,4.4s-6.06,16-7.93,24.69c-1.2,5.62-.47,22.13-5.95,16.19-1.74-2.1-1-5.42-1-8.16.09-7.74,2.84-19.26,3.26-23,.44-3.94-2.46.49-11.33,12.22-5.36,7.1-11.59,14.68-13.85,16.85-3.79,3.65-4.7,4.51-7.65,4.42a8.14,8.14,0,0,1-6.32-4.14c-.78-1.35-1.33-3.51-2.88-3.67-1.23-.13-2.84,2.37-2.84,2.37-.79,1.3-3,5.41-4.88,9.12-4.56,8.93-5.31,9.61-9.32,14.61-1.72,2.15-6.57,3.58-8.63,2.24-4.45-2.9-3.54-9.16-3.28-15.67.12-3.21.76-9.59.76-9.59l-3.7,6.11c-1.35,1.93-6.92,16.68-16.08,17-4.86.17-7.31-3.67-7.83-7.17-1-6.83,2.08-15.36,3.48-22.66.6-3.15,1.1-6,1.1-6.29,0-1.42-1.52-.08-6.66,5.88-8.4,9.73-14.44,12.82-20.29,10.37-3.14-1.31-4.88-4.3-5.48-9.42-.24-2-.74-3.67-1.12-3.67a28,28,0,0,0-5.15,3c-7.53,5.12-10.56,6.13-17.74,6.1s-15.39-2.24-23-5.31c-3.6-1.45-8.1-4.13-10.33-4.21-1.76,0-2.69,2.49-3.84,3.91-5.18,6.42-13.29,13.91-21.1,11.89a6.05,6.05,0,0,1-3.92-6.4c2.11-9.26,16.54-12.45,24-15.45,1.33-.91,2.93-3.86,2.93-3.86,1.45-3.11,3.53-8,4.62-10.86,3.95-10.39,18.81-54.68,18.49-55C49.44,46.91,25.2,57.86,22.24,60A27.66,27.66,0,0,0,17,65.51c-2.47,3.59-4.32,4.45-2.62,1.22,1.35-2.59,5.88-6.89,9.73-9.27,1.63-1,7.81-4,13.73-6.54,6.57-2.87,11.65-5.59,13-7s3.67-5.61,5.83-10.8C62.68,18.81,68.23,10.26,73,7.92,77,6,84,5.83,86.56,10.38c5.37,9.62-1.78,19.14-24,30.88L58,43.67,48.33,72.43C43,88.25,36.78,105.61,34.47,111s-4.09,9.91-3.95,10c1,.81,13.8,7.36,21.36,8.89,5.95,1.21,12.42,1.92,18.22.13,5.59-1.73,11.2-6.78,14.41-10a16.82,16.82,0,0,0,3.68-5.93c1.9-6.36,9.21-19.51,13.28-23.9,7.69-8.31,16.53-9.9,16.53-3,0,3.92-8.69,14.67-17.21,21.29-5.29,4.11-7.38,8.93-7.55,17.4-.12,6.29,1.3,9.62,4.11,9.62,2.31,0,8.67-5.2,14.35-11.73,8.39-9.67,9-11.07,18.46-42.82,2.19-7.35,6.87-21.69,10.41-31.87s6.16-18.91,6.05-19.48c-.19-1.1-17.73-1.26-24.59-.2-14.28,2.2-25.81,8.86-31.29,17.14-2.54,3.84-3.12,3-.74-1C93.3,40,100,34.4,109.12,30.77c7.69-3.05,10.59-4.36,25.53-4.14l13.31.2,1.71-6.31c2.28-8.4,3.16-10.39,4.6-10.38,3.52,0,4.09,2.56,2.41,10.59-.75,3.58-2,6.32-1.63,6.4,1.23.28,14.51,1,14.72.89s.67-2.76,1.53-6.5c2.75-12.09,4.76-14.62,8.16-10.29,1.42,1.81,1.43,2,.08,9.43-.75,4.18-1.87,7.37-1.68,7.56.65.65,15.07-1.12,22-2.94,13-3.44,20.71-7,37.24-17.19.37-.23.45-.06.18.38-.7,1.14-10.21,7.3-16.46,10.68-9.52,5.13-24.76,9.21-36.27,10.76l-6.88.93L174,43.21c-7,23.72-22.1,75.28-25.18,95.81-1.35,9-2.78,20.15.94,15.73,9.89-11.77,12.57-21.29,21-39.91,4.18-9.2,6.84-19,12.88-26.86,3.88-5,10.85-10.55,15.56-5.43,2.21,2.41,1.45,6-.3,9.8s-7.94,10.52-13.8,14.71c-4.9,3.5-5.78,4.9-7.4,11.74-1.68,7.15-1.44,12.57.68,15,1.56,1.81,2,1.95,3.62,1.21,2.67-1.22,7.88-7.46,20.93-25.08,8.77-11.85,12-16.84,13.49-20.79,3.67-9.8,4.57-11.5,6.06-11.5a4.13,4.13,0,0,1,2.59,1.3c1.08,1.19,1.08,1.77,0,6.69-.65,3-1,5.57-.77,5.8s1.87-1,3.52-1.88a14.06,14.06,0,0,1,5.94-1.73c3.74,0,7.32.24,9.11-2.53a21.87,21.87,0,0,0,2.74-7c1.13-4.34,2-6,4-7.88,8-7.31,22-3,22,6.83,0,2.62-1.37,3-2.24.6-2.13-5.88-5-8.39-9.72-8.4-5.13,0-8.69,6.14-7.83,13.49.79,6.7,6.93,22.14,8.81,22.14a54,54,0,0,0,7.59-3.29c8.89-4.33,15-6.73,13.95-5.44-.46.55-5.06,3.32-10.22,6.16s-9.56,5.58-9.76,6.08,1.17,5.47,3,11c5.28,15.65,6.57,23.09,6.17,35.55-.56,17-4.62,28.13-13.62,37.13-8.81,8.8-14.55,9.28-22.23,7.68-6.36-1.33-12.16-8.67-14.34-13.23Zm28.22,6.26c5.79-4,8.89-7.76,11.11-13.68,2.61-6.93,4.38-17.9,4.38-27.12,0-7.24-.37-9.92-2.54-18.35-2.94-11.44-5.47-18.4-6.68-18.4-1.56,0-10.53,8-14.69,13.13-10.39,12.77-17.49,27.76-18.75,39.59-1.33,12.4,4.46,24.54,13.24,27.76C240.27,197.75,243.7,197,249.47,193.08ZM129,147.64c3.33-5.7,5.52-9.83,8.41-14.66,1.79-3,5.54-8.91,5.54-8.91l5.39-21.16c5.71-22.42,13.86-49.74,18-63.27,1.39-4.49,2.65-8.75,2.32-8.93s-3.77-.12-7.77-.32l-6.5-.32L149.3,45.14c-11.77,34.56-22,70.66-26.52,88.23-2.49,9.6-4.53,15.62,1.31,18.23,2.52.14,3.73-1.92,4.92-4ZM17.71,131.55c2.4-2.46,6.57-6.64,4.42-9.32s-7.45.53-10.55,2.38-6.73,4.11-7.15,8.18c1,8.37,10,2.15,13.28-1.24Zm86.64-28.21c7-6.36,10.86-12,10.55-15.35-.16-1.66-.68-2.59-1.52-2.75-2-.38-8.12,5.91-11.59,12-3.05,5.33-4.76,10.9-3.35,10.9C98.82,108.11,101.48,106,104.35,103.34Zm85.16-3.19C197.1,92.53,200,85,195.24,84.44c-2.73-.32-5.37,1.91-8.64,7.76-3.16,5.65-5.75,12.74-5.19,14.2S184.56,105.13,189.51,100.15ZM67.16,37.1c7.62-4.46,16-12.73,17.8-17.47,2.2-5.94-.13-10.24-5.54-10.24-5.59,0-10.9,5.26-17.16,20.55C59,38.05,56.71,41.5,60.2,40.56c2.07-.55,3.71-1.56,7-3.46Zm552.52,99.46a115.73,115.73,0,0,1,2-22.51c.48-2.37-.71-1.58-.71-1.58-3.1,7.64-5.9,15.82-12.32,18.71-4.92,1.81-11.19-.78-11.19-11.06,0-2.11.5-3.75.19-3.75s-4.3,9.51-6.91,14.42c-4.1,7.72-10.57,21.38-17.46,20.2-8.13-1.39-5.06-27.52-6.64-24.7-.63,1.26-2.25,4.6-3.51,6.83-2.65,4.69-6.79,12-12.12,10.92-4.88-1-6.18-7.91-6.43-13.45a69.74,69.74,0,0,1,.51-11.26c.88-5-3.61,3.89-5.1,6.07-3.79,5.54-8.22,14-14.1,12.1-7.52-2.49-6-14.52-5.21-23.19.16-2,1-5.73.9-5.88s-5.23,6-7.66,9.11c-8.4,10.88-18.26,23.4-30.36,24.54a21,21,0,0,1-21.19-12.6c-6.83-15.48-7.17-36.23-5.38-54,2.2-22,7.61-47.36,23.75-62,5.68-5.15,14.81-4.29,20.52-.52,5.16,3.41,9.29,16.78,6.83,17.24-1.47.28-2.19-3.8-2.19-3.8-2-6.94-5.81-12.21-11.47-12.53-7.48-.42-13.28,8.24-17,14.78-12,21.32-13.77,47.88-12.63,72.34.51,11,1.15,23.9,8.7,32a14.25,14.25,0,0,0,12.26,4.2c12.54-1.83,28.54-29.79,44.06-46.66,4.69-5.1,14-9.34,20.74-1.17L552.88,92,554.11,89c1.36-3.42,2.91-4.26,5.81-3.16,2.59,1,1.65,1.85-1.76,11.41-5.34,13.66-6.52,19.25-8.16,29.67-.74,4.71-1.71,15.48,2.83,14,4.2-1.36,10.22-14.82,14.83-23.91,1.26-2.5,3.4-15.54,5.73-28.58s5.68-31.07,7.43-40,3-16.54,2.69-16.78-5.45-1.22-11.52-2.15c-18.16-2.77-33.16-1.17-41,4.38a21.63,21.63,0,0,1-3.72,2.3c-1.2,0,2.73-3.32,5.74-4.84q14.13-7.17,39.28-3.3c7.19,1.1,11.45,1.46,11.91,1s1.48-4.44,2.42-9,1.27-8,4.19-8.78C596.46,9.66,593.06,22,593,22c-2.23,10-3.1,9.16,8.73,8.69,14.47-.57,20.76-2.68,33.58-11.26,3.39-2.28,6.29-4.13,6.43-4.13,2.32,0-6.52,6.84-13.52,10.46-8.13,4.21-14.74,5.89-27,6.86l-10.79.86-2.4,13.36c-1.33,7.35-4.44,24.6-6.92,38.33-5.84,30.93-7.21,33-8.38,50.74-.27,4,.32,14,3.18,11.51,7.88-6.82,16.85-27.53,22.5-39.7,4.42-9.53,15.07-31.7,26-23.29,2,1.54,3.94,7.64,4.44,6.58,3.86-8.21,3.54-9.42,6.93-8.13,1.81.69,1.9.94,1.41,4.17C637,89,635.05,95.9,633,102.47c-4.87,15.71-6.11,21-7.06,31.53-.53,5.86-.56,17.31,4.75,17,3.62-.21,5.39-6.68,8.7-13.83,5.6-12.12,12.45-21.81,15.38-24.46s2.09-.2-1.87,5.89c-2.23,3.42-6.47,10.89-9.43,16.6-4,8.28-6.7,21-15,20.13-6.87-.7-8.72-11.86-8.78-18.77ZM547.71,90c-2.72-1.69-7.22-2.57-9.58-.41-6.85,6.28-12,19.91-12.4,31-.16,4.3.48,15.61,4,12.28C535.06,127.81,557.73,96.75,547.71,90Zm75.79,7.8c1.27-3.8,2.81-10.25-.79-12s-7.44,3.35-9.63,6.55c-4.65,6.82-8.73,14.18-10.64,21.95-1.12,4.55-2,12.8,2.66,13.8,8,1.72,14.63-19.07,18.4-30.29Zm107.37,27.9c-.08-3.56.17-8.9-.6-10.51-1.39,1.39-3.72,4.46-5.7,6.31-9.48,8.88-18.46,19.11-29.87,17.45-6.77-1-11.2-8.76-14-15-6.35-14-6.36-31.74-4.6-45.82,2.85-22.8,4.34-32.24,10.4-47.15,2.89-7.14,9.27-15,17-15.91,6.69-.79,14.79,2.62,17.57,10C726.13,38.68,723.54,39,722.45,37c-2-3.56-1.69-8.2-4.34-11.19-3.22-3.62-8.26-8.36-12.84-6.8C691,23.87,689,44.72,686.57,60.21c-3.5,22.68-5.2,46.44,3.95,65,2.26,4.59,8.07,12.16,13.17,9.32,11.23-6.27,21.88-17,29.3-28.34,4.77-7.32,8.56-12,15.15-13.67,5.62-1.67,7,2.45,8.83,3.06,2.49.65,8-2.25,8-2.25,3.57-1.72,10.55-5.6,15.5-8.64s9.47-5.53,10-5.53c1.45,0-11.2,9.12-17.88,12.89a84.65,84.65,0,0,1-14.95,6.68c-1,.3-1.3,2-1.69,9.88-.86,17.45-2.91,25.87-6.6,32.27-1.95,3.37-5.74,7.87-9.48,6.81-7.61-2.18-8.9-14.19-9.08-22Zm19.85,7c3.08-11,3.66-25,1.47-34.27-.47-2-4.43-3.22-6-1.82-8.79,7.89-11,19.73-9.91,36.12.28,4,1.21,10.66,5.25,10.94,4.7.32,8.14-7.39,9.17-11Z"/></g></g></svg>